<svg width="18" height="21" viewBox="0 0 18 21" fill="none" xmlns="http://www.w3.org/2000/svg">
<path d="M16.7477 7.17571C16.6575 7.23218 14.5103 8.42384 14.5103 11.066C14.6115 14.0793 17.2199 15.136 17.2647 15.136C17.2199 15.1925 16.8709 16.5756 15.8369 18.0254C15.0163 19.2742 14.1055 20.5334 12.7224 20.5334C11.4068 20.5334 10.9345 19.701 9.41654 19.701C7.78634 19.701 7.32507 20.5334 6.07694 20.5334C4.69387 20.5334 3.71561 19.2068 2.85027 17.9696C1.72607 16.3504 0.77054 13.8094 0.736806 11.3696C0.714073 10.0768 0.96194 8.80591 1.59114 7.72644C2.47921 6.21944 4.06467 5.19644 5.79607 5.16271C7.12267 5.11798 8.30334 6.07351 9.11294 6.07351C9.88881 6.07351 11.3393 5.16271 12.9805 5.16271C13.6889 5.16344 15.578 5.37684 16.7477 7.17571ZM9.00074 4.90458C8.76461 3.72391 9.41654 2.54324 10.0237 1.79011C10.7996 0.879308 12.025 0.261108 13.0817 0.261108C13.1492 1.44178 12.7217 2.59971 11.9575 3.44304C11.2719 4.35384 10.0912 5.03951 9.00074 4.90458Z" fill="white"/>
</svg>
